#!OML:ASF F:\VICON\USERDATA\INSTALL\rory3\rory3.ASF
:FULLY-SPECIFIED
:DEGREES
71
root 0.17137946541032273 17.170299053506366 38.92741411011037 1.9092552608224405 -3.680977560231625 -4.5498656153840304
lfemur -29.1191210633354 -2.5537835369004713 -16.430736229794174
ltibia 29.20520563858745
lfoot 0.47644762531827434 -2.963530176758069
ltoes -3.3725536363769426
rfemur 7.6032665928856815 4.058587995708347 31.593837380766928
rtibia 48.33740294293022
rfoot 6.243688272983845 4.732526774359593
rtoes -1.6560134703310139
lowerback 10.93408628129018 3.212096261698584 5.667550608280137
upperback -0.6639002159580083 5.201272411540625 1.3094471284754294
thorax -7.063395081754709 2.3703505835911156 -2.5024462719287204
lowerneck -18.080214212915518 -3.280617890939027 -2.3990861096588496
upperneck 18.447214841691107 -4.281484777420764 2.0352752399374685
head 8.815895365975514 -1.958441230261994 0.6502373363622047
lclavicle -2.2552953157757515e-15 6.892101454462496e-16
lhumerus -52.7185886513682 1.5597320103357015 87.92564825945702
lradius 54.367901748543616
lwrist 13.31353672469207
lhand -24.548101714614717 13.574369086700168
lfingers 7.125019999999999
lthumb 1.8201813387412529 43.67928262842197
rclavicle -2.260759626559124e-15 6.853918490355218e-16
rhumerus -35.3728597677023 -3.536950037629979 -90.07829907796506
rradius 66.14556114175011
rwrist -1.7539172604357387
rhand -17.951204324327797 31.80544037083953
rfingers 7.125019999999999
rthumb 7.9431799272377175 2.317078756346027
72
root 0.2561111885811868 17.354674858594617 40.060340165419305 0.6080089365502053 -3.109068073851083 -2.9220339178519827
lfemur -25.952223070121384 -3.04609896583817 -19.06099993004155
ltibia 31.986546370840237
lfoot 2.018602645693758 -5.266495380265355
ltoes -2.5580915252614504
rfemur 3.157755256880776 1.8466829580212263 28.66623453047346
rtibia 57.99004030524716
rfoot 17.9178384373849 4.940564808629711
rtoes 8.902022738551839
lowerback 11.316795829043555 3.0656463884679814 4.194388990706792
upperback -0.5656541939173194 4.873034526560975 0.764114044703045
thorax -7.196021353803912 2.2239553145048396 -2.0060211935464176
lowerneck -17.79686457328023 -3.236751550006235 -2.395302830331649
upperneck 18.601833022540703 -4.217142724789877 2.0153295734054564
head 8.847068677831983 -1.9177692685421999 0.6531279816071315
lclavicle -2.2552627984211826e-15 6.89230463372446e-16
lhumerus -52.622898627879465 2.1239815158202378 87.4398516991143
lradius 54.00841026107136
lwrist 12.925000946193322
lhand -23.727590223441446 14.01521047005696
lfingers 7.125019999999999
lthumb 2.52943732238466 44.06998389439797
rclavicle -2.2606757404810508e-15 6.854506725301177e-16
rhumerus -37.1906870860862 -5.1339502759251845 -89.28907214591277
rradius 64.5458714142596
rwrist -0.3616484188383562
rhand -17.594253257153408 31.72253295919515
rfingers 7.125019999999999
rthumb 8.251826820865858 2.054010178682523
73
root 0.34535202895887795 17.51111513220338 41.50807907304896 -0.1717419876236982 -3.87678355799632 -1.845024535099736
lfemur -22.105040141714476 -2.756349451699239 -20.743755049158008
ltibia 34.325773076224934
lfoot 0.6061385982856211 -4.961099656094857
ltoes -2.811245524695093
rfemur -4.506505426535082 0.8878055404825702 26.2254226723623
rtibia 68.24186396425469
rfoot 24.829262521676227 1.7294700039934767
rtoes 20.974328920482982
lowerback 11.96302227428364 3.1551185614922974 2.983641975116362
upperback -0.3218344419010415 4.828863201618438 0.41632785635229186
thorax -7.242645806133628 2.2385784767179215 -1.653299218496102
lowerneck -17.77195088170894 -3.1548777177039335 -2.4387978016403182
upperneck 18.67435139358854 -4.105097054731578 2.102655893714295
head 8.85164950603921 -1.8483361138039212 0.7024141981693646
lclavicle -2.257066221195304e-15 6.879662080618398e-16
lhumerus -51.94981794958143 1.1835279243237364 87.87266174026199
lradius 55.446373898774794
lwrist 15.21320447768528
lhand -23.658031198749487 13.710284610101045
lfingers 7.125019999999999
lthumb 2.4129466018247485 43.46925228091858
rclavicle -2.2610508828160352e-15 6.85187606989264e-16
rhumerus -38.62190060273118 -5.979382221956037 -88.80505582701126
rradius 63.16751312493389
rwrist 0.4901056074422425
rhand -17.090274078308394 31.63309719497578
rfingers 7.125019999999999
rthumb 8.726485514856094 1.9411091277543373
74
root 0.3970662474100384 17.638118880637805 42.76904498753993 -0.5361112788812092 -4.275466518421757 -0.6166799378444396
lfemur -17.914804546272435 -3.150625944746619 -22.481893865464073
ltibia 34.376713618934886
lfoot -0.8123315431837548 -4.13159464506214
ltoes -2.362707512219405
rfemur -12.640118604171478 -0.381952088103922 24.10720625525874
rtibia 76.94097788945183
rfoot 20.159896774689003 -5.112827807546466
rtoes 22.078471758025238
lowerback 12.552359689947478 2.949332877972291 1.500712952318279
upperback 0.018341284226250587 4.343639960757436 0.1610394327928404
thorax -7.268799011719934 2.0475681394222067 -1.0047995367163851
lowerneck -17.897951173478816 -2.9583493847857882 -2.44780504246517
upperneck 18.736451096510837 -3.8309471559721047 2.0821314239516466
head 8.842854240054695 -1.7134883838036836 0.7128616548540335
lclavicle -2.258747956223525e-15 6.867858430061605e-16
lhumerus -49.62902353274792 -1.0676917470639964 89.11518740568005
lradius 57.16061771173611
lwrist 18.18521734654861
lhand -24.629669762577795 13.325928709042968
lfingers 7.125019999999999
lthumb 1.4031888546858826 42.95056617716683
rclavicle -2.262704085058211e-15 6.840285550095665e-16
rhumerus -39.27150414487332 -6.167839197206707 -88.6409149784894
rradius 61.86944384741138
rwrist 0.9561461456261182
rhand -16.69838199602149 31.494207693521993
rfingers 7.125019999999999
rthumb 9.066103817348754 1.817592685904288
75
root 0.4197358266350863 17.66580867954021 43.568803922006616 -1.017840735579359 -3.677543867159944 0.07505913938900255
lfemur -13.963257099235758 -3.683912586649277 -23.737165513261196
ltibia 34.784264303928104
lfoot -2.432439606787964 -3.22801193710065
ltoes -0.7436608593395171
rfemur -19.794609242808985 -2.5152424019303803 23.148425916952036
rtibia 82.07879336223172
rfoot 12.571560121673913 -10.858409004031788
rtoes 18.867670823007963
lowerback 13.097682815324859 2.3021389255885873 0.5588081749750121
upperback 0.51207562615121 3.332709136038997 0.1691136801398745
thorax -7.2438091447079245 1.6007693217177401 -0.30426784022814446
lowerneck -17.772010751731976 -2.8233987846805704 -2.5788178503100205
upperneck 18.747421052116824 -3.6241081132247492 2.1183756762626205
head 8.825177982818278 -1.618862615564559 0.7663495465735701
lclavicle -2.2593275256890645e-15 6.863807999271587e-16
lhumerus -46.70223487624234 -2.9352418590090914 89.74614922377958
lradius 58.119604456926695
lwrist 18.00308411627754
lhand -25.296891571424908 13.152933912513824
lfingers 7.125019999999999
lthumb 0.8039097886540449 42.806052890259856
rclavicle -2.2621957162451526e-15 6.843849962530235e-16
rhumerus -39.87258080155838 -6.509518224244603 -88.42862927676914
rradius 61.02323878263171
rwrist 1.6099811089416147
rhand -16.3748046761494 31.34730901632034
rfingers 7.125019999999999
rthumb 9.242563115609283 1.6413375640009993
76
root 0.4234219207192164 17.68910077848936 44.35893423701912 -0.8678613964644792 -2.577406804307138 0.33761671498731216
lfemur -10.46887718028239 -4.174516525386668 -24.519971611821646
ltibia 34.43432876769636
lfoot -2.7570173152896604 -2.521425829142432
ltoes -1.2608930930575717
rfemur -25.877956666519243 -3.8422249081522866 22.950997122331906
rtibia 82.42694267940394
rfoot 9.056380175061534 -11.566875514661223
rtoes 13.923687199239337
lowerback 13.271380184186905 1.5552063504569564 0.05539123564377979
upperback 0.627756150764833 2.2018752288717205 0.34374195086381865
thorax -7.218948055255233 1.1006931547863903 0.3658809541537219
lowerneck -17.73334255284066 -2.739017760768688 -2.7421638322790267
upperneck 18.87205679995277 -3.466524946584819 2.0979696039045885
head 8.869557451299183 -1.5596261531761026 0.7827066094718859
lclavicle -2.2631478273635165e-15 6.837025539863659e-16
lhumerus -43.15819028997548 -4.783058076493896 90.03585903269331
lradius 59.554511997710776
lwrist 17.258382587606423
lhand -25.72341642160656 12.967654260437351
lfingers 7.125019999999999
lthumb 0.5015199217598488 42.72077168988971
rclavicle -2.263818631400498e-15 6.832471469350746e-16
rhumerus -40.74755905167044 -6.702819529705336 -88.14406730132215
rradius 60.95104079062365
rwrist 0.9653622653285887
rhand -16.346760594306794 31.134199920074995
rfingers 7.125019999999999
rthumb 9.251063627893416 1.19186974820117
77
root 0.4156802685257691 17.610206103325904 44.97287127715067 -0.5990140154569126 -1.2078393636424756 0.7120840421477297
lfemur -7.152104939928025 -4.378428437334097 -25.292734406730744
ltibia 33.986364115864745
lfoot -2.6780446267574884 -2.3663540800546166
ltoes -2.679771041687003
rfemur -30.83166741262355 -4.296677143533497 22.739061408535598
rtibia 78.42945614960637
rfoot 6.580383830838343 -9.741053891644547
rtoes 8.146701910948295
lowerback 13.520391985823967 0.8103815898003414 -0.5112779566294627
upperback 0.6250800614585612 1.1124121296395508 0.508060367203873
thorax -7.295838136198634 0.6045379749743307 1.1105705078131676
lowerneck -17.703547449989227 -2.7558088142898174 -2.9811680603186517
upperneck 18.840009547181406 -3.4274227174654963 2.167964943086966
head 8.865880144919977 -1.540685621441558 0.8390383801623522
lclavicle -2.2625114521261997e-15 6.841513802979297e-16
lhumerus -39.70265328350298 -7.233861075981753 90.457509214493
lradius 61.37347825334338
lwrist 17.742976897736476
lhand -26.058531493966154 12.963062801355639
lfingers 7.125019999999999
lthumb 0.2904843968104429 42.8044661876957
rclavicle -2.2624543790613047e-15 6.842036164066238e-16
rhumerus -41.88408110283555 -6.490484823867662 -87.95706274280148
rradius 61.51042958595477
rwrist -0.16256721576208255
rhand -16.492363217434512 30.878647095466704
rfingers 7.125019999999999
rthumb 9.106498701424732 0.9603318114405377
